# xmcd
#
# Track frame offsets:
#	150
#	7552
#	17553
#	27289
#	35561
#	46952
#	56777
#	64784
#	74066
#	84055
#	96419
#	106269
#	115903
#	125740
#	135785
#	146970
#	156746
#	166928
#	178105
#	190872
#	200900
#	210348
#	220618
#	230644
#	240451
#	252045
#	263097
#
# Disc length: 3630 seconds
#
# Revision: 0
# Processed by: cddbd v1.5.2PL0 Copyright (c) Steve Scherf et al.
# Submitted via: EasyCDDAExtractor 15.3.0.1
#
DISCID=7e0e2c1b
DTITLE=George Jones - Genesis Of A Genius - Early Sessions Cd 2
DYEAR=2011
DGENRE=Country
TTITLE0=George Jones (as Rusty Young) - Any Old Time
TTITLE1=George Jones - Yes I Know Why
TTITLE2=George Jones (as Rusty Young) - Sweet Dreams
TTITLE3=George Jones - One Woman Man
TTITLE4=George Jones - One Is A Lonely Number
TTITLE5=George Jones - Rain Rain (Rain Keeps A Fallin')
TTITLE6=George Jones and Benny Barnes - Go Away With Me
TTITLE7=George Jones - Cause I Love You
TTITLE8=George Jones - Run Boy
TTITLE9=George Jones and Jeanette Hicks - I Take The Chance
TTITLE10=George Jones - I've Got Five Dollars And It's Saturday Night
TTITLE11=George Jones and Benny Barnes - I've Got A New Heartache
TTITLE12=George Jones and Jeanette Hicks - I'm With The Wrong One
TTITLE13=George Jones - Uh Uh No
TTITLE14=George Jones and Virginia Spurlock - Flames In My Heart
TTITLE15=George Jones - Frozen Heart
TTITLE16=George Jones - Don't Stop The Music
TTITLE17=George Jones - Nothing Can Stop My Love For You
TTITLE18=George Jones - You're Back Again
TTITLE19=George Jones - No Use To Cry
TTITLE20=George Jones - Never Been So Weary
TTITLE21=George Jones - Don't Do This To Me
TTITLE22=George Jones - All I Want To Do In Life
TTITLE23=George Jones - Too Much Water
TTITLE24=George Jones - Hearts In My Dreams
TTITLE25=George Jones - Tall Tall Trees
TTITLE26=George Jones - Maybe Little Baby
EXTD=
EXTT0=
EXTT1=
EXTT2=
EXTT3=
EXTT4=
EXTT5=
EXTT6=
EXTT7=
EXTT8=
EXTT9=
EXTT10=
EXTT11=
EXTT12=
EXTT13=
EXTT14=
EXTT15=
EXTT16=
EXTT17=
EXTT18=
EXTT19=
EXTT20=
EXTT21=
EXTT22=
EXTT23=
EXTT24=
EXTT25=
EXTT26=
PLAYORDER=
